<?xml version="1.0" encoding="UTF-8" standalone="no"?>
<svg
   xmlns:dc="http://purl.org/dc/elements/1.1/"
   xmlns:cc="http://creativecommons.org/ns#"
   xmlns:rdf="http://www.w3.org/1999/02/22-rdf-syntax-ns#"
   xmlns:svg="http://www.w3.org/2000/svg"
   xmlns="http://www.w3.org/2000/svg"
   viewBox="0 0 626.84003 626.84003"
   height="626.84003"
   width="626.84003"
   xml:space="preserve"
   id="svg2"
   version="1.1"><metadata
     id="metadata8"><rdf:RDF><cc:Work
         rdf:about=""><dc:format>image/svg+xml</dc:format><dc:type
           rdf:resource="http://purl.org/dc/dcmitype/StillImage" /></cc:Work></rdf:RDF></metadata><defs
     id="defs6" /><g
     transform="matrix(1.3333333,0,0,-1.3333333,0,626.84)"
     id="g10"><g
       transform="scale(0.1)"
       id="g12"><path
         id="path14"
         style="fill:#b7183f;fill-opacity:1;fill-rule:nonzero;stroke:none"
         d="M 2350.66,4696.32 C 1055.19,4696.32 5,3646.13 5,2350.66 5,1055.18 1055.19,5 2350.66,5 c 1295.47,0 2345.66,1050.18 2345.66,2345.66 0,1295.47 -1050.19,2345.66 -2345.66,2345.66" /><path
         id="path16"
         style="fill:none;stroke:#f4f4f4;stroke-width:10;stroke-linecap:butt;stroke-linejoin:miter;stroke-miterlimit:10;stroke-dasharray:none;stroke-opacity:1"
         d="M 2350.66,4696.32 C 1055.19,4696.32 5,3646.13 5,2350.66 5,1055.18 1055.19,5 2350.66,5 c 1295.47,0 2345.66,1050.18 2345.66,2345.66 0,1295.47 -1050.19,2345.66 -2345.66,2345.66 z" /><path
         id="path18"
         style="fill:#b7183f;fill-opacity:1;fill-rule:nonzero;stroke:none"
         d="m 3332.82,714.781 c -3.78,17.508 -6.22,28.84 -9.24,42.848 -11.13,-4.777 -20.16,-8.649 -31.8,-13.649 13.49,-9.601 24.45,-17.402 41.04,-29.199 z M 2971.6,1099.84 c -3.86,-37.54 -12.12,-73.45 -9.42,-108.531 1.57,-20.457 15.61,-46.149 32.77,-58.168 72.18,-50.512 148.07,-96.211 221.74,-144.852 35.42,-23.391 36.45,-24.66 73.67,-2.34 3.86,2.313 7.69,4.68 11.54,7.031 10,6.079 14.47,12.93 11.94,25.79 -15.16,77.199 -29.88,154.5 -43.11,232.03 -8.07,47.23 -42.75,74.82 -78.83,100.27 -20.9,14.74 -47.01,22.78 -74.78,35.7 4.41,-58.34 8.43,-111.52 12.79,-169.16 -54.86,28.49 -105.1,54.6 -158.31,82.23 z M 1850.09,3045.46 c 32.52,-46.73 65.25,-94.16 98.4,-141.32 39.71,-56.47 80.31,-112.38 119.55,-169.15 50.4,-72.92 99.23,-146.84 149.86,-219.62 52.72,-75.76 107.31,-150.32 160.09,-226.05 49.86,-71.52 98.03,-144.11 147.65,-215.79 56.3,-81.33 113.27,-162.26 170.14,-243.23 48.52,-69.07 97.5,-137.84 145.94,-206.95 61,-87.02 121.88,-174.12 182.38,-261.46 28.44,-41.07 52.64,-85.31 85.12,-123.14 16.39,-19.1 46.94,-27.11 71.08,-40.13 -9.59,21.08 -20.45,38.3 -32.09,55.03 -52.4,75.28 -105.08,150.39 -157.52,225.65 -58.31,83.67 -116.49,167.42 -174.69,251.16 -25.01,35.97 -50.11,71.9 -74.84,108.05 -38.48,56.25 -76.3,112.92 -115.1,168.97 -41.43,59.83 -83.81,119.07 -125.5,178.75 -33.17,47.5 -65.82,95.36 -98.92,142.92 -24.61,35.38 -49.95,70.31 -74.27,105.88 -39.19,57.31 -77.34,115.27 -116.78,172.42 -39.59,57.37 -80.51,113.91 -120.31,171.16 -55.66,80.08 -112.31,159.59 -165.39,241.23 -18.81,28.92 -36.09,46.49 -74.8,25.62 z m -184.42,-102.35 c -14.33,-22.15 -27.33,-41.75 -39.65,-61.74 -1.95,-3.18 -2.64,-9.18 -0.79,-11.99 9.64,-14.64 20.35,-28.64 30.58,-42.94 40.6,-56.71 81.43,-113.26 121.63,-170.24 26.18,-37.1 51.01,-75.08 77.15,-112.23 29.95,-42.57 60.96,-84.45 90.99,-126.97 27.9,-39.49 54.86,-79.58 82.68,-119.11 39.28,-55.81 79.16,-111.23 118.43,-167.04 26.98,-38.35 53.1,-77.26 80.08,-115.61 29.98,-42.6 60.75,-84.7 90.72,-127.31 41.35,-58.75 82.14,-117.86 123.44,-176.64 25.28,-35.99 51.32,-71.49 76.55,-107.5 40.8,-58.23 81.04,-116.84 121.87,-175.06 37.06,-52.86 74.67,-105.38 111.88,-158.15 31.68,-44.9 63.22,-89.89 94.69,-134.92 24.63,-35.24 49.07,-70.6 73.61,-105.92 7.82,28.62 10.83,55.69 12.82,82.82 0.72,9.73 2.65,21.84 -2.18,29.07 -30.88,46.24 -63.38,91.47 -95.55,136.91 -41.05,57.98 -82.59,115.64 -123.38,173.79 -40.48,57.72 -80.04,116.03 -120.46,173.79 -37.37,53.43 -75.58,106.33 -112.98,159.73 -63.06,90.02 -125.54,180.4 -188.69,270.35 -49.78,70.92 -100.57,141.18 -150.21,212.19 -39.09,55.91 -76.83,112.68 -115.68,168.74 -33.41,48.19 -67.44,95.99 -101.42,143.82 -27.2,38.29 -55.11,76.12 -82.04,114.59 -28.14,40.19 -55.07,81.16 -83.28,121.31 -29.04,41.33 -58.98,82.08 -90.81,126.26 z m 25.29,31.99 c 10.26,-14.05 15.92,-21.55 21.31,-29.21 39.65,-56.38 79.25,-112.8 118.86,-169.2 37.97,-54.04 76.04,-108.01 113.88,-162.15 29.36,-42.01 58.24,-84.33 87.7,-126.28 26.59,-37.87 53.98,-75.21 80.48,-113.13 41.18,-58.93 81.7,-118.29 122.89,-177.21 26.01,-37.21 53.05,-73.75 79.07,-110.96 60.5,-86.5 120.36,-173.41 181.04,-259.8 52.33,-74.51 105.93,-148.22 158.04,-222.87 49.89,-71.48 98.21,-143.96 147.92,-215.54 45.59,-65.64 92.05,-130.71 138.32,-195.91 12.7,-17.88 22.63,-39.76 39.92,-51.96 30.72,-21.66 66.1,-37.32 106.16,-59.09 -3.73,49.34 -7,93.08 -10.49,136.81 -0.15,1.92 -2.41,3.64 -3.69,5.47 -22.69,32.43 -45.29,64.93 -68.08,97.3 -53.22,75.56 -106.79,150.9 -159.76,226.63 -52.99,75.77 -105.52,151.84 -158.08,227.9 -42.06,60.86 -83.53,122.11 -125.87,182.78 -40.78,58.43 -82.79,116.07 -123.46,174.58 -39.67,57.09 -77.93,115.09 -117.56,172.22 -42.16,60.79 -85.41,120.9 -127.82,181.55 -48.75,69.72 -96.93,139.81 -145.69,209.53 -39.47,56.44 -79.84,112.31 -119.05,168.91 -37.66,54.33 -74.11,109.43 -111.96,163.63 -2.52,3.61 -14.12,5.43 -18.69,3.08 -35.1,-18.1 -69.5,-37.44 -105.39,-57.08 z M 3368.63,646.711 c -35.33,22.109 -70.83,43.969 -105.95,66.379 -98.96,63.16 -198.6,125.39 -295.92,190.769 -21.14,14.2 -34.87,39.262 -49.9,60.68 -40.03,57.051 -78.24,115.261 -118.42,172.221 -39.8,56.41 -81.71,111.47 -121.61,167.83 -49.64,70.11 -97.94,141.08 -147.26,211.4 -39.11,55.79 -79.21,110.93 -118.26,166.75 -39.13,55.95 -77.12,112.64 -116.28,168.57 -50.11,71.56 -101.08,142.58 -151.31,214.06 -28.19,40.11 -55.22,80.97 -83.56,120.98 -39.49,55.74 -80.01,110.82 -119.54,166.53 -26.65,37.57 -52.16,75.87 -78.53,113.62 -22.76,32.59 -46.28,64.7 -69.01,97.31 -35.6,51.08 -70.54,102.59 -106.29,153.56 -33.75,48.13 -68.68,95.5 -101.75,144.04 -4.52,6.65 -5.43,20.78 -1.03,26.89 26.59,36.97 53.03,74.4 83.7,108.24 37.3,41.15 87.6,64.8 141.65,79.89 28.24,7.89 57.25,13.87 86.31,18.08 14.25,2.07 26.24,-1.66 36.78,-17.18 75.97,-111.88 154.41,-222.22 231.53,-333.39 39.72,-57.25 77.84,-115.51 117.59,-172.75 41.8,-60.23 85.18,-119.45 126.95,-179.7 50.18,-72.39 99.09,-145.59 149.12,-218.07 40.91,-59.26 83.03,-117.76 123.93,-177.02 38.67,-56.04 76.14,-112.83 114.72,-168.92 36.95,-53.71 74.76,-106.87 111.96,-160.42 55.32,-79.68 110.28,-159.57 165.67,-239.2 41.08,-59.05 82.73,-117.74 123.89,-176.76 33.15,-47.54 67.29,-94.53 98.09,-143.45 10.09,-16.02 12.42,-37.07 15.96,-56.23 17.06,-92.361 33.13,-184.889 49.95,-277.291 5.45,-29.93 12.75,-59.551 17.78,-89.539 1.73,-10.352 -0.86,-21.391 -1.47,-32.11 -3.17,-1.921 -6.33,-3.851 -9.49,-5.769" /><path
         id="path20"
         style="fill:none;stroke:#f4f4f4;stroke-width:10;stroke-linecap:butt;stroke-linejoin:miter;stroke-miterlimit:10;stroke-dasharray:none;stroke-opacity:1"
         d="m 3332.82,714.781 c -3.78,17.508 -6.22,28.84 -9.24,42.848 -11.13,-4.777 -20.16,-8.649 -31.8,-13.649 13.49,-9.601 24.45,-17.402 41.04,-29.199 z M 2971.6,1099.84 c -3.86,-37.54 -12.12,-73.45 -9.42,-108.531 1.57,-20.457 15.61,-46.149 32.77,-58.168 72.18,-50.512 148.07,-96.211 221.74,-144.852 35.42,-23.391 36.45,-24.66 73.67,-2.34 3.86,2.313 7.69,4.68 11.54,7.031 10,6.079 14.47,12.93 11.94,25.79 -15.16,77.199 -29.88,154.5 -43.11,232.03 -8.07,47.23 -42.75,74.82 -78.83,100.27 -20.9,14.74 -47.01,22.78 -74.78,35.7 4.41,-58.34 8.43,-111.52 12.79,-169.16 -54.86,28.49 -105.1,54.6 -158.31,82.23 z M 1850.09,3045.46 c 32.52,-46.73 65.25,-94.16 98.4,-141.32 39.71,-56.47 80.31,-112.38 119.55,-169.15 50.4,-72.92 99.23,-146.84 149.86,-219.62 52.72,-75.76 107.31,-150.32 160.09,-226.05 49.86,-71.52 98.03,-144.11 147.65,-215.79 56.3,-81.33 113.27,-162.26 170.14,-243.23 48.52,-69.07 97.5,-137.84 145.94,-206.95 61,-87.02 121.88,-174.12 182.38,-261.46 28.44,-41.07 52.64,-85.31 85.12,-123.14 16.39,-19.1 46.94,-27.11 71.08,-40.13 -9.59,21.08 -20.45,38.3 -32.09,55.03 -52.4,75.28 -105.08,150.39 -157.52,225.65 -58.31,83.67 -116.49,167.42 -174.69,251.16 -25.01,35.97 -50.11,71.9 -74.84,108.05 -38.48,56.25 -76.3,112.92 -115.1,168.97 -41.43,59.83 -83.81,119.07 -125.5,178.75 -33.17,47.5 -65.82,95.36 -98.92,142.92 -24.61,35.38 -49.95,70.31 -74.27,105.88 -39.19,57.31 -77.34,115.27 -116.78,172.42 -39.59,57.37 -80.51,113.91 -120.31,171.16 -55.66,80.08 -112.31,159.59 -165.39,241.23 -18.81,28.92 -36.09,46.49 -74.8,25.62 z m -184.42,-102.35 c -14.33,-22.15 -27.33,-41.75 -39.65,-61.74 -1.95,-3.18 -2.64,-9.18 -0.79,-11.99 9.64,-14.64 20.35,-28.64 30.58,-42.94 40.6,-56.71 81.43,-113.26 121.63,-170.24 26.18,-37.1 51.01,-75.08 77.15,-112.23 29.95,-42.57 60.96,-84.45 90.99,-126.97 27.9,-39.49 54.86,-79.58 82.68,-119.11 39.28,-55.81 79.16,-111.23 118.43,-167.04 26.98,-38.35 53.1,-77.26 80.08,-115.61 29.98,-42.6 60.75,-84.7 90.72,-127.31 41.35,-58.75 82.14,-117.86 123.44,-176.64 25.28,-35.99 51.32,-71.49 76.55,-107.5 40.8,-58.23 81.04,-116.84 121.87,-175.06 37.06,-52.86 74.67,-105.38 111.88,-158.15 31.68,-44.9 63.22,-89.89 94.69,-134.92 24.63,-35.24 49.07,-70.6 73.61,-105.92 7.82,28.62 10.83,55.69 12.82,82.82 0.72,9.73 2.65,21.84 -2.18,29.07 -30.88,46.24 -63.38,91.47 -95.55,136.91 -41.05,57.98 -82.59,115.64 -123.38,173.79 -40.48,57.72 -80.04,116.03 -120.46,173.79 -37.37,53.43 -75.58,106.33 -112.98,159.73 -63.06,90.02 -125.54,180.4 -188.69,270.35 -49.78,70.92 -100.57,141.18 -150.21,212.19 -39.09,55.91 -76.83,112.68 -115.68,168.74 -33.41,48.19 -67.44,95.99 -101.42,143.82 -27.2,38.29 -55.11,76.12 -82.04,114.59 -28.14,40.19 -55.07,81.16 -83.28,121.31 -29.04,41.33 -58.98,82.08 -90.81,126.26 z m 25.29,31.99 c 10.26,-14.05 15.92,-21.55 21.31,-29.21 39.65,-56.38 79.25,-112.8 118.86,-169.2 37.97,-54.04 76.04,-108.01 113.88,-162.15 29.36,-42.01 58.24,-84.33 87.7,-126.28 26.59,-37.87 53.98,-75.21 80.48,-113.13 41.18,-58.93 81.7,-118.29 122.89,-177.21 26.01,-37.21 53.05,-73.75 79.07,-110.96 60.5,-86.5 120.36,-173.41 181.04,-259.8 52.33,-74.51 105.93,-148.22 158.04,-222.87 49.89,-71.48 98.21,-143.96 147.92,-215.54 45.59,-65.64 92.05,-130.71 138.32,-195.91 12.7,-17.88 22.63,-39.76 39.92,-51.96 30.72,-21.66 66.1,-37.32 106.16,-59.09 -3.73,49.34 -7,93.08 -10.49,136.81 -0.15,1.92 -2.41,3.64 -3.69,5.47 -22.69,32.43 -45.29,64.93 -68.08,97.3 -53.22,75.56 -106.79,150.9 -159.76,226.63 -52.99,75.77 -105.52,151.84 -158.08,227.9 -42.06,60.86 -83.53,122.11 -125.87,182.78 -40.78,58.43 -82.79,116.07 -123.46,174.58 -39.67,57.09 -77.93,115.09 -117.56,172.22 -42.16,60.79 -85.41,120.9 -127.82,181.55 -48.75,69.72 -96.93,139.81 -145.69,209.53 -39.47,56.44 -79.84,112.31 -119.05,168.91 -37.66,54.33 -74.11,109.43 -111.96,163.63 -2.52,3.61 -14.12,5.43 -18.69,3.08 -35.1,-18.1 -69.5,-37.44 -105.39,-57.08 z M 3368.63,646.711 c -35.33,22.109 -70.83,43.969 -105.95,66.379 -98.96,63.16 -198.6,125.39 -295.92,190.769 -21.14,14.2 -34.87,39.262 -49.9,60.68 -40.03,57.051 -78.24,115.261 -118.42,172.221 -39.8,56.41 -81.71,111.47 -121.61,167.83 -49.64,70.11 -97.94,141.08 -147.26,211.4 -39.11,55.79 -79.21,110.93 -118.26,166.75 -39.13,55.95 -77.12,112.64 -116.28,168.57 -50.11,71.56 -101.08,142.58 -151.31,214.06 -28.19,40.11 -55.22,80.97 -83.56,120.98 -39.49,55.74 -80.01,110.82 -119.54,166.53 -26.65,37.57 -52.16,75.87 -78.53,113.62 -22.76,32.59 -46.28,64.7 -69.01,97.31 -35.6,51.08 -70.54,102.59 -106.29,153.56 -33.75,48.13 -68.68,95.5 -101.75,144.04 -4.52,6.65 -5.43,20.78 -1.03,26.89 26.59,36.97 53.03,74.4 83.7,108.24 37.3,41.15 87.6,64.8 141.65,79.89 28.24,7.89 57.25,13.87 86.31,18.08 14.25,2.07 26.24,-1.66 36.78,-17.18 75.97,-111.88 154.41,-222.22 231.53,-333.39 39.72,-57.25 77.84,-115.51 117.59,-172.75 41.8,-60.23 85.18,-119.45 126.95,-179.7 50.18,-72.39 99.09,-145.59 149.12,-218.07 40.91,-59.26 83.03,-117.76 123.93,-177.02 38.67,-56.04 76.14,-112.83 114.72,-168.92 36.95,-53.71 74.76,-106.87 111.96,-160.42 55.32,-79.68 110.28,-159.57 165.67,-239.2 41.08,-59.05 82.73,-117.74 123.89,-176.76 33.15,-47.54 67.29,-94.53 98.09,-143.45 10.09,-16.02 12.42,-37.07 15.96,-56.23 17.06,-92.361 33.13,-184.889 49.95,-277.291 5.45,-29.93 12.75,-59.551 17.78,-89.539 1.73,-10.352 -0.86,-21.391 -1.47,-32.11 -3.17,-1.921 -6.33,-3.851 -9.49,-5.769 z" /><path
         id="path22"
         style="fill:#f4f4f4;fill-opacity:1;fill-rule:nonzero;stroke:none"
         d="m 1690.96,2975.1 c 35.89,19.64 70.29,38.98 105.39,57.08 4.57,2.35 16.17,0.53 18.69,-3.08 37.85,-54.2 74.3,-109.3 111.96,-163.63 39.21,-56.6 79.58,-112.47 119.05,-168.91 48.76,-69.72 96.94,-139.81 145.69,-209.53 42.41,-60.65 85.66,-120.76 127.82,-181.55 39.63,-57.13 77.89,-115.13 117.56,-172.22 40.67,-58.51 82.68,-116.15 123.46,-174.58 42.34,-60.67 83.81,-121.92 125.87,-182.78 52.56,-76.06 105.09,-152.13 158.08,-227.9 52.97,-75.73 106.54,-151.07 159.76,-226.63 22.79,-32.37 45.39,-64.87 68.08,-97.3 1.28,-1.83 3.54,-3.55 3.69,-5.47 3.49,-43.73 6.76,-87.47 10.49,-136.81 -40.06,21.77 -75.44,37.43 -106.16,59.09 -17.29,12.2 -27.22,34.08 -39.92,51.96 -46.27,65.2 -92.73,130.27 -138.32,195.91 -49.71,71.58 -98.03,144.06 -147.92,215.54 -52.11,74.65 -105.71,148.36 -158.04,222.87 -60.68,86.39 -120.54,173.3 -181.04,259.8 -26.02,37.21 -53.06,73.75 -79.07,110.96 -41.19,58.92 -81.71,118.28 -122.89,177.21 -26.5,37.92 -53.89,75.26 -80.48,113.13 -29.46,41.95 -58.34,84.27 -87.7,126.28 -37.84,54.14 -75.91,108.11 -113.88,162.15 -39.61,56.4 -79.21,112.82 -118.86,169.2 -5.39,7.66 -11.05,15.16 -21.31,29.21" /><path
         id="path24"
         style="fill:none;stroke:#f4f4f4;stroke-width:10;stroke-linecap:butt;stroke-linejoin:miter;stroke-miterlimit:10;stroke-dasharray:none;stroke-opacity:1"
         d="m 1690.96,2975.1 c 35.89,19.64 70.29,38.98 105.39,57.08 4.57,2.35 16.17,0.53 18.69,-3.08 37.85,-54.2 74.3,-109.3 111.96,-163.63 39.21,-56.6 79.58,-112.47 119.05,-168.91 48.76,-69.72 96.94,-139.81 145.69,-209.53 42.41,-60.65 85.66,-120.76 127.82,-181.55 39.63,-57.13 77.89,-115.13 117.56,-172.22 40.67,-58.51 82.68,-116.15 123.46,-174.58 42.34,-60.67 83.81,-121.92 125.87,-182.78 52.56,-76.06 105.09,-152.13 158.08,-227.9 52.97,-75.73 106.54,-151.07 159.76,-226.63 22.79,-32.37 45.39,-64.87 68.08,-97.3 1.28,-1.83 3.54,-3.55 3.69,-5.47 3.49,-43.73 6.76,-87.47 10.49,-136.81 -40.06,21.77 -75.44,37.43 -106.16,59.09 -17.29,12.2 -27.22,34.08 -39.92,51.96 -46.27,65.2 -92.73,130.27 -138.32,195.91 -49.71,71.58 -98.03,144.06 -147.92,215.54 -52.11,74.65 -105.71,148.36 -158.04,222.87 -60.68,86.39 -120.54,173.3 -181.04,259.8 -26.02,37.21 -53.06,73.75 -79.07,110.96 -41.19,58.92 -81.71,118.28 -122.89,177.21 -26.5,37.92 -53.89,75.26 -80.48,113.13 -29.46,41.95 -58.34,84.27 -87.7,126.28 -37.84,54.14 -75.91,108.11 -113.88,162.15 -39.61,56.4 -79.21,112.82 -118.86,169.2 -5.39,7.66 -11.05,15.16 -21.31,29.21 z" /><path
         id="path26"
         style="fill:#f4f4f4;fill-opacity:1;fill-rule:nonzero;stroke:none"
         d="m 1665.67,2943.11 c 31.83,-44.18 61.77,-84.93 90.81,-126.26 28.21,-40.15 55.14,-81.12 83.28,-121.31 26.93,-38.47 54.84,-76.3 82.04,-114.59 33.98,-47.83 68.01,-95.63 101.42,-143.82 38.85,-56.06 76.59,-112.83 115.68,-168.74 49.64,-71.01 100.43,-141.27 150.21,-212.19 63.15,-89.95 125.63,-180.33 188.69,-270.35 37.4,-53.4 75.61,-106.3 112.98,-159.73 40.42,-57.76 79.98,-116.07 120.46,-173.79 40.79,-58.15 82.33,-115.81 123.38,-173.79 32.17,-45.44 64.67,-90.67 95.55,-136.91 4.83,-7.23 2.9,-19.34 2.18,-29.07 -1.99,-27.13 -5,-54.2 -12.82,-82.82 -24.54,35.32 -48.98,70.68 -73.61,105.92 -31.47,45.03 -63.01,90.02 -94.69,134.92 -37.21,52.77 -74.82,105.29 -111.88,158.15 -40.83,58.22 -81.07,116.83 -121.87,175.06 -25.23,36.01 -51.27,71.51 -76.55,107.5 -41.3,58.78 -82.09,117.89 -123.44,176.64 -29.97,42.61 -60.74,84.71 -90.72,127.31 -26.98,38.35 -53.1,77.26 -80.08,115.61 -39.27,55.81 -79.15,111.23 -118.43,167.04 -27.82,39.53 -54.78,79.62 -82.68,119.11 -30.03,42.52 -61.04,84.4 -90.99,126.97 -26.14,37.15 -50.97,75.13 -77.15,112.23 -40.2,56.98 -81.03,113.53 -121.63,170.24 -10.23,14.3 -20.94,28.3 -30.58,42.94 -1.85,2.81 -1.16,8.81 0.79,11.99 12.32,19.99 25.32,39.59 39.65,61.74" /><path
         id="path28"
         style="fill:none;stroke:#f4f4f4;stroke-width:10;stroke-linecap:butt;stroke-linejoin:miter;stroke-miterlimit:10;stroke-dasharray:none;stroke-opacity:1"
         d="m 1665.67,2943.11 c 31.83,-44.18 61.77,-84.93 90.81,-126.26 28.21,-40.15 55.14,-81.12 83.28,-121.31 26.93,-38.47 54.84,-76.3 82.04,-114.59 33.98,-47.83 68.01,-95.63 101.42,-143.82 38.85,-56.06 76.59,-112.83 115.68,-168.74 49.64,-71.01 100.43,-141.27 150.21,-212.19 63.15,-89.95 125.63,-180.33 188.69,-270.35 37.4,-53.4 75.61,-106.3 112.98,-159.73 40.42,-57.76 79.98,-116.07 120.46,-173.79 40.79,-58.15 82.33,-115.81 123.38,-173.79 32.17,-45.44 64.67,-90.67 95.55,-136.91 4.83,-7.23 2.9,-19.34 2.18,-29.07 -1.99,-27.13 -5,-54.2 -12.82,-82.82 -24.54,35.32 -48.98,70.68 -73.61,105.92 -31.47,45.03 -63.01,90.02 -94.69,134.92 -37.21,52.77 -74.82,105.29 -111.88,158.15 -40.83,58.22 -81.07,116.83 -121.87,175.06 -25.23,36.01 -51.27,71.51 -76.55,107.5 -41.3,58.78 -82.09,117.89 -123.44,176.64 -29.97,42.61 -60.74,84.71 -90.72,127.31 -26.98,38.35 -53.1,77.26 -80.08,115.61 -39.27,55.81 -79.15,111.23 -118.43,167.04 -27.82,39.53 -54.78,79.62 -82.68,119.11 -30.03,42.52 -61.04,84.4 -90.99,126.97 -26.14,37.15 -50.97,75.13 -77.15,112.23 -40.2,56.98 -81.03,113.53 -121.63,170.24 -10.23,14.3 -20.94,28.3 -30.58,42.94 -1.85,2.81 -1.16,8.81 0.79,11.99 12.32,19.99 25.32,39.59 39.65,61.74 z" /><path
         id="path30"
         style="fill:#f4f4f4;fill-opacity:1;fill-rule:nonzero;stroke:none"
         d="m 1850.09,3045.46 c 38.71,20.87 55.99,3.3 74.8,-25.62 53.08,-81.64 109.73,-161.15 165.39,-241.23 39.8,-57.25 80.72,-113.79 120.31,-171.16 39.44,-57.15 77.59,-115.11 116.78,-172.42 24.32,-35.57 49.66,-70.5 74.27,-105.88 33.1,-47.56 65.75,-95.42 98.92,-142.92 41.69,-59.68 84.07,-118.92 125.5,-178.75 38.8,-56.05 76.62,-112.72 115.1,-168.97 24.73,-36.15 49.83,-72.08 74.84,-108.05 58.2,-83.74 116.38,-167.49 174.69,-251.16 52.44,-75.26 105.12,-150.37 157.52,-225.65 11.64,-16.73 22.5,-33.95 32.09,-55.03 -24.14,13.02 -54.69,21.03 -71.08,40.13 -32.48,37.83 -56.68,82.07 -85.12,123.14 -60.5,87.34 -121.38,174.44 -182.38,261.46 -48.44,69.11 -97.42,137.88 -145.94,206.95 -56.87,80.97 -113.84,161.9 -170.14,243.23 -49.62,71.68 -97.79,144.27 -147.65,215.79 -52.78,75.73 -107.37,150.29 -160.09,226.05 -50.63,72.78 -99.46,146.7 -149.86,219.62 -39.24,56.77 -79.84,112.68 -119.55,169.15 -33.15,47.16 -65.88,94.59 -98.4,141.32" /><path
         id="path32"
         style="fill:none;stroke:#f4f4f4;stroke-width:10;stroke-linecap:butt;stroke-linejoin:miter;stroke-miterlimit:10;stroke-dasharray:none;stroke-opacity:1"
         d="m 1850.09,3045.46 c 38.71,20.87 55.99,3.3 74.8,-25.62 53.08,-81.64 109.73,-161.15 165.39,-241.23 39.8,-57.25 80.72,-113.79 120.31,-171.16 39.44,-57.15 77.59,-115.11 116.78,-172.42 24.32,-35.57 49.66,-70.5 74.27,-105.88 33.1,-47.56 65.75,-95.42 98.92,-142.92 41.69,-59.68 84.07,-118.92 125.5,-178.75 38.8,-56.05 76.62,-112.72 115.1,-168.97 24.73,-36.15 49.83,-72.08 74.84,-108.05 58.2,-83.74 116.38,-167.49 174.69,-251.16 52.44,-75.26 105.12,-150.37 157.52,-225.65 11.64,-16.73 22.5,-33.95 32.09,-55.03 -24.14,13.02 -54.69,21.03 -71.08,40.13 -32.48,37.83 -56.68,82.07 -85.12,123.14 -60.5,87.34 -121.38,174.44 -182.38,261.46 -48.44,69.11 -97.42,137.88 -145.94,206.95 -56.87,80.97 -113.84,161.9 -170.14,243.23 -49.62,71.68 -97.79,144.27 -147.65,215.79 -52.78,75.73 -107.37,150.29 -160.09,226.05 -50.63,72.78 -99.46,146.7 -149.86,219.62 -39.24,56.77 -79.84,112.68 -119.55,169.15 -33.15,47.16 -65.88,94.59 -98.4,141.32 z" /><path
         id="path34"
         style="fill:#f4f4f4;fill-opacity:1;fill-rule:nonzero;stroke:none"
         d="m 2971.6,1099.84 c 53.21,-27.63 103.45,-53.74 158.31,-82.23 -4.36,57.64 -8.38,110.82 -12.79,169.16 27.77,-12.92 53.88,-20.96 74.78,-35.7 36.08,-25.45 70.76,-53.04 78.83,-100.27 13.23,-77.53 27.95,-154.831 43.11,-232.03 2.53,-12.86 -1.94,-19.711 -11.94,-25.79 -3.85,-2.351 -7.68,-4.718 -11.54,-7.031 -37.22,-22.32 -38.25,-21.051 -73.67,2.34 -73.67,48.641 -149.56,94.34 -221.74,144.852 -17.16,12.019 -31.2,37.711 -32.77,58.168 -2.7,35.081 5.56,70.991 9.42,108.531" /><path
         id="path36"
         style="fill:none;stroke:#f4f4f4;stroke-width:10;stroke-linecap:butt;stroke-linejoin:miter;stroke-miterlimit:10;stroke-dasharray:none;stroke-opacity:1"
         d="m 2971.6,1099.84 c 53.21,-27.63 103.45,-53.74 158.31,-82.23 -4.36,57.64 -8.38,110.82 -12.79,169.16 27.77,-12.92 53.88,-20.96 74.78,-35.7 36.08,-25.45 70.76,-53.04 78.83,-100.27 13.23,-77.53 27.95,-154.831 43.11,-232.03 2.53,-12.86 -1.94,-19.711 -11.94,-25.79 -3.85,-2.351 -7.68,-4.718 -11.54,-7.031 -37.22,-22.32 -38.25,-21.051 -73.67,2.34 -73.67,48.641 -149.56,94.34 -221.74,144.852 -17.16,12.019 -31.2,37.711 -32.77,58.168 -2.7,35.081 5.56,70.991 9.42,108.531 z" /><path
         id="path38"
         style="fill:#f4f4f4;fill-opacity:1;fill-rule:nonzero;stroke:none"
         d="m 3332.82,714.781 c -16.59,11.797 -27.55,19.598 -41.04,29.199 11.64,5 20.67,8.872 31.8,13.649 3.02,-14.008 5.46,-25.34 9.24,-42.848" /><path
         id="path40"
         style="fill:none;stroke:#f4f4f4;stroke-width:10;stroke-linecap:butt;stroke-linejoin:miter;stroke-miterlimit:10;stroke-dasharray:none;stroke-opacity:1"
         d="m 3332.82,714.781 c -16.59,11.797 -27.55,19.598 -41.04,29.199 11.64,5 20.67,8.872 31.8,13.649 3.02,-14.008 5.46,-25.34 9.24,-42.848 z" /><path
         id="path42"
         style="fill:#f4f4f4;fill-opacity:1;fill-rule:nonzero;stroke:none"
         d="m 1505.28,1991.3 c -3.03,6.21 -5.82,22.3 -15.31,29.23 -18.83,13.73 -59.67,-10.7 -74.11,-42.32 -7.12,-15.57 -6.11,-29.9 11.48,-38.4 19.79,-9.56 59.74,13.59 77.94,51.49 z m 65.26,139.26 c 1.85,-16.94 -0.58,-30.9 5.29,-38.11 5.74,-7.07 20.18,-10.56 30.37,-9.8 24.19,1.78 52.47,31.82 55.66,55.46 2.59,19.21 -12.32,35.88 -30.31,28.86 -21.4,-8.35 -40.12,-23.55 -61.01,-36.41 z m -216.42,-298.27 c 9.06,34.18 0.53,53.48 -24.16,51.93 -24.26,-1.52 -57.74,-29.1 -63.58,-52.38 -5.89,-23.46 10.08,-41.99 32.61,-33.6 19.85,7.39 36.86,22.4 55.13,34.05 z m -132.2,-88.55 c 30.65,83.99 59.11,162.17 87.71,240.29 14.17,38.7 27.82,77.62 43.51,115.7 3.28,7.94 13.67,16.09 22.25,18.25 103.3,25.86 206.86,50.62 310.37,75.63 9.27,2.24 18.63,4.12 32.09,7.07 -15.48,-45.97 -29.21,-88.42 -44.04,-130.47 -25.94,-73.57 -53.2,-146.68 -78.46,-220.48 -6.78,-19.79 -15.92,-30.28 -37.79,-34.69 -110.25,-22.26 -220.09,-46.54 -335.64,-71.3" /><path
         id="path44"
         style="fill:none;stroke:#f4f4f4;stroke-width:10;stroke-linecap:butt;stroke-linejoin:miter;stroke-miterlimit:10;stroke-dasharray:none;stroke-opacity:1"
         d="m 1505.28,1991.3 c -3.03,6.21 -5.82,22.3 -15.31,29.23 -18.83,13.73 -59.67,-10.7 -74.11,-42.32 -7.12,-15.57 -6.11,-29.9 11.48,-38.4 19.79,-9.56 59.74,13.59 77.94,51.49 z m 65.26,139.26 c 1.85,-16.94 -0.58,-30.9 5.29,-38.11 5.74,-7.07 20.18,-10.56 30.37,-9.8 24.19,1.78 52.47,31.82 55.66,55.46 2.59,19.21 -12.32,35.88 -30.31,28.86 -21.4,-8.35 -40.12,-23.55 -61.01,-36.41 z m -216.42,-298.27 c 9.06,34.18 0.53,53.48 -24.16,51.93 -24.26,-1.52 -57.74,-29.1 -63.58,-52.38 -5.89,-23.46 10.08,-41.99 32.61,-33.6 19.85,7.39 36.86,22.4 55.13,34.05 z m -132.2,-88.55 c 30.65,83.99 59.11,162.17 87.71,240.29 14.17,38.7 27.82,77.62 43.51,115.7 3.28,7.94 13.67,16.09 22.25,18.25 103.3,25.86 206.86,50.62 310.37,75.63 9.27,2.24 18.63,4.12 32.09,7.07 -15.48,-45.97 -29.21,-88.42 -44.04,-130.47 -25.94,-73.57 -53.2,-146.68 -78.46,-220.48 -6.78,-19.79 -15.92,-30.28 -37.79,-34.69 -110.25,-22.26 -220.09,-46.54 -335.64,-71.3 z" /><path
         id="path46"
         style="fill:#f4f4f4;fill-opacity:1;fill-rule:nonzero;stroke:none"
         d="m 1115.06,1321.79 c -12.83,-19.65 -26.24,-34.46 -32.96,-51.85 -9.25,-23.93 6.1,-40.58 30.77,-32.38 16.55,5.5 31.95,18.68 44.17,31.84 12.64,13.61 19.52,34.6 3.14,48.01 -9.17,7.52 -28.04,3.18 -45.12,4.38 z M 967.586,1168.24 c -12.313,-23.3 -25.574,-41.43 -31.609,-61.72 -6.184,-20.78 12.816,-36.62 31.98,-26.55 17.844,9.37 34.883,24.01 46.293,40.48 6.64,9.59 7.17,33.25 0.23,39.89 -8.6,8.22 -27.792,5.37 -46.894,7.9 z m 283.074,306.49 c -12.91,-20.28 -25.93,-36.22 -33.81,-54.38 -8.2,-18.93 5.82,-38 23.99,-31.45 20.08,7.22 38.17,22.77 54.06,37.91 12.23,11.65 16.49,32.12 1.95,42.84 -10.19,7.5 -28.74,3.65 -46.19,5.08 z m 90.65,60.7 c -24.21,-86.62 -47.33,-168.56 -69.93,-250.64 -10.43,-37.87 -19.12,-76.23 -30.28,-113.86 -2.44,-8.23 -10.76,-18.23 -18.56,-20.81 -110.93,-36.7 -222.23,-72.26 -333.466,-108.04 -0.738,-0.25 -1.746,0.32 2.512,-0.6 7.84,41.43 13.738,83.4 23.957,124.28 20.648,82.64 43.387,164.76 66.121,246.85 1.977,7.14 9.18,16.14 15.84,18.2 113.126,35.05 226.556,69.14 343.806,104.62" /><path
         id="path48"
         style="fill:none;stroke:#f4f4f4;stroke-width:10;stroke-linecap:butt;stroke-linejoin:miter;stroke-miterlimit:10;stroke-dasharray:none;stroke-opacity:1"
         d="m 1115.06,1321.79 c -12.83,-19.65 -26.24,-34.46 -32.96,-51.85 -9.25,-23.93 6.1,-40.58 30.77,-32.38 16.55,5.5 31.95,18.68 44.17,31.84 12.64,13.61 19.52,34.6 3.14,48.01 -9.17,7.52 -28.04,3.18 -45.12,4.38 z M 967.586,1168.24 c -12.313,-23.3 -25.574,-41.43 -31.609,-61.72 -6.184,-20.78 12.816,-36.62 31.98,-26.55 17.844,9.37 34.883,24.01 46.293,40.48 6.64,9.59 7.17,33.25 0.23,39.89 -8.6,8.22 -27.792,5.37 -46.894,7.9 z m 283.074,306.49 c -12.91,-20.28 -25.93,-36.22 -33.81,-54.38 -8.2,-18.93 5.82,-38 23.99,-31.45 20.08,7.22 38.17,22.77 54.06,37.91 12.23,11.65 16.49,32.12 1.95,42.84 -10.19,7.5 -28.74,3.65 -46.19,5.08 z m 90.65,60.7 c -24.21,-86.62 -47.33,-168.56 -69.93,-250.64 -10.43,-37.87 -19.12,-76.23 -30.28,-113.86 -2.44,-8.23 -10.76,-18.23 -18.56,-20.81 -110.93,-36.7 -222.23,-72.26 -333.466,-108.04 -0.738,-0.25 -1.746,0.32 2.512,-0.6 7.84,41.43 13.738,83.4 23.957,124.28 20.648,82.64 43.387,164.76 66.121,246.85 1.977,7.14 9.18,16.14 15.84,18.2 113.126,35.05 226.556,69.14 343.806,104.62 z" /><path
         id="path50"
         style="fill:#f4f4f4;fill-opacity:1;fill-rule:nonzero;stroke:none"
         d="m 1965.9,1858.97 c 10.08,19.76 2.17,65.16 -13.99,80.36 -16.75,15.76 -37.58,10.7 -46.47,-12.24 -9.66,-24.91 -6.31,-48.82 8.82,-70.94 16.26,-23.78 38.71,-22.54 51.64,2.82 z m -310.1,11.98 c -10.96,-24.76 -2.54,-62.6 17.4,-81.5 13.28,-12.59 24.99,-10.82 36.47,2 19.34,21.62 14.61,71.9 -8.54,90.76 -16.68,13.59 -36.51,8.66 -45.33,-11.26 z m 112.9,257.75 c -5.51,-2.41 -17.73,-4.19 -24.17,-11.24 -21.19,-23.2 -10.05,-81.48 18.14,-95.09 7.03,-3.39 20.51,-1.93 26.69,2.87 26.91,20.92 16.71,86.78 -20.66,103.46 z m 16.45,-227.1 c -12.33,-23.31 -7.43,-60.75 10.52,-80.33 15.93,-17.37 36.82,-14.26 47.57,7.09 10.47,20.81 4.86,60.12 -11.17,78.2 -16.6,18.72 -35.45,16.73 -46.92,-4.96 z m 100.14,-280.58 c 13.39,28.05 7.78,54.86 -8.65,79.04 -14.19,20.88 -37.75,17.5 -49.68,-5.33 -11.66,-22.29 -5.68,-59 13.1,-80.51 14.06,-16.11 35.22,-12.91 45.23,6.8 z m -153.26,572.93 c 39.16,-42.16 74.87,-79.92 109.79,-118.39 47.72,-52.6 95.19,-105.45 141.74,-159.08 5.48,-6.32 8.52,-19.53 5.96,-27.33 -38.23,-116.51 -77.59,-232.65 -118.22,-353.43 -24.45,23.69 -48.1,45.56 -70.57,68.57 -63.49,65.02 -126.82,130.21 -189.23,196.26 -6.27,6.63 -10.56,21.23 -7.77,29.38 35.48,103.42 72.43,206.34 109,309.38 5.93,16.72 11.81,33.45 19.3,54.64" /><path
         id="path52"
         style="fill:none;stroke:#f4f4f4;stroke-width:10;stroke-linecap:butt;stroke-linejoin:miter;stroke-miterlimit:10;stroke-dasharray:none;stroke-opacity:1"
         d="m 1965.9,1858.97 c 10.08,19.76 2.17,65.16 -13.99,80.36 -16.75,15.76 -37.58,10.7 -46.47,-12.24 -9.66,-24.91 -6.31,-48.82 8.82,-70.94 16.26,-23.78 38.71,-22.54 51.64,2.82 z m -310.1,11.98 c -10.96,-24.76 -2.54,-62.6 17.4,-81.5 13.28,-12.59 24.99,-10.82 36.47,2 19.34,21.62 14.61,71.9 -8.54,90.76 -16.68,13.59 -36.51,8.66 -45.33,-11.26 z m 112.9,257.75 c -5.51,-2.41 -17.73,-4.19 -24.17,-11.24 -21.19,-23.2 -10.05,-81.48 18.14,-95.09 7.03,-3.39 20.51,-1.93 26.69,2.87 26.91,20.92 16.71,86.78 -20.66,103.46 z m 16.45,-227.1 c -12.33,-23.31 -7.43,-60.75 10.52,-80.33 15.93,-17.37 36.82,-14.26 47.57,7.09 10.47,20.81 4.86,60.12 -11.17,78.2 -16.6,18.72 -35.45,16.73 -46.92,-4.96 z m 100.14,-280.58 c 13.39,28.05 7.78,54.86 -8.65,79.04 -14.19,20.88 -37.75,17.5 -49.68,-5.33 -11.66,-22.29 -5.68,-59 13.1,-80.51 14.06,-16.11 35.22,-12.91 45.23,6.8 z m -153.26,572.93 c 39.16,-42.16 74.87,-79.92 109.79,-118.39 47.72,-52.6 95.19,-105.45 141.74,-159.08 5.48,-6.32 8.52,-19.53 5.96,-27.33 -38.23,-116.51 -77.59,-232.65 -118.22,-353.43 -24.45,23.69 -48.1,45.56 -70.57,68.57 -63.49,65.02 -126.82,130.21 -189.23,196.26 -6.27,6.63 -10.56,21.23 -7.77,29.38 35.48,103.42 72.43,206.34 109,309.38 5.93,16.72 11.81,33.45 19.3,54.64 z" /><path
         id="path54"
         style="fill:#f4f4f4;fill-opacity:1;fill-rule:nonzero;stroke:none"
         d="m 664.793,1369.96 c -15.355,8.17 -27.262,19.38 -38.902,19.11 -8.633,-0.19 -19.778,-13.9 -24.758,-24.05 -9.43,-19.23 5.125,-63.45 22.117,-75.44 20.176,-14.25 40.609,-8.19 44.129,16.29 2.879,20.06 -1.375,41.14 -2.586,64.09 z m 180.805,12.72 c 17.711,-9.13 29.828,-18.17 43.242,-20.97 5.816,-1.22 17.262,8.95 21.055,16.51 12.644,25.17 2.648,63.02 -19.36,81.44 -16.996,14.22 -37.754,11.02 -42.808,-10.27 -4.832,-20.38 -1.707,-42.64 -2.129,-66.71 z m -62.047,27.17 c -14.602,7.69 -26.707,18.82 -38.785,18.79 -8.411,-0.01 -22.219,-14.27 -24.149,-24.03 -5.336,-27.07 -1.957,-54.68 21.071,-73.94 6.828,-5.7 20.265,-9.04 28.214,-6.32 8.032,2.77 17.911,14.13 18.364,22.2 1.121,20.07 -2.661,40.41 -4.715,63.3 z m 2.551,-276.03 c 15.793,-7.03 28.105,-17.06 39.503,-16.12 8.754,0.73 21.125,14.11 23.555,23.93 6.465,26.16 1.067,51.92 -18.847,71.71 -18.258,18.13 -44.286,10.85 -47.665,-14.64 -2.648,-19.96 1.883,-40.88 3.454,-64.88 z m -61.922,478.13 c -15.379,6.73 -29.27,17.54 -42.657,16.95 -8.378,-0.37 -22.437,-17.8 -22.597,-27.76 -0.324,-19.71 3.992,-41.17 12.789,-58.7 4.816,-9.61 23.851,-18.81 34.34,-16.84 9.375,1.77 20.547,18.33 22.433,29.77 2.735,16.55 -2.187,34.37 -4.308,56.58 z m 136.84,-557.8 c -89.961,83.41 -176,163.35 -262.278,243.03 -16.859,15.57 -20.359,31.01 -14.207,54.89 28.871,112.04 54.606,224.88 81.582,337.4 0.356,1.5 2.321,2.61 5.688,6.2 6.574,-5.03 13.707,-9.9 20.203,-15.52 86.039,-74.4 171.808,-149.12 258.18,-223.13 12.027,-10.31 13.199,-18.42 8.96,-34.09 -30.878,-114.24 -59.789,-229 -89.468,-343.56 -1.965,-7.61 -5.086,-14.93 -8.66,-25.22" /><path
         id="path56"
         style="fill:none;stroke:#f4f4f4;stroke-width:10;stroke-linecap:butt;stroke-linejoin:miter;stroke-miterlimit:10;stroke-dasharray:none;stroke-opacity:1"
         d="m 664.793,1369.96 c -15.355,8.17 -27.262,19.38 -38.902,19.11 -8.633,-0.19 -19.778,-13.9 -24.758,-24.05 -9.43,-19.23 5.125,-63.45 22.117,-75.44 20.176,-14.25 40.609,-8.19 44.129,16.29 2.879,20.06 -1.375,41.14 -2.586,64.09 z m 180.805,12.72 c 17.711,-9.13 29.828,-18.17 43.242,-20.97 5.816,-1.22 17.262,8.95 21.055,16.51 12.644,25.17 2.648,63.02 -19.36,81.44 -16.996,14.22 -37.754,11.02 -42.808,-10.27 -4.832,-20.38 -1.707,-42.64 -2.129,-66.71 z m -62.047,27.17 c -14.602,7.69 -26.707,18.82 -38.785,18.79 -8.411,-0.01 -22.219,-14.27 -24.149,-24.03 -5.336,-27.07 -1.957,-54.68 21.071,-73.94 6.828,-5.7 20.265,-9.04 28.214,-6.32 8.032,2.77 17.911,14.13 18.364,22.2 1.121,20.07 -2.661,40.41 -4.715,63.3 z m 2.551,-276.03 c 15.793,-7.03 28.105,-17.06 39.503,-16.12 8.754,0.73 21.125,14.11 23.555,23.93 6.465,26.16 1.067,51.92 -18.847,71.71 -18.258,18.13 -44.286,10.85 -47.665,-14.64 -2.648,-19.96 1.883,-40.88 3.454,-64.88 z m -61.922,478.13 c -15.379,6.73 -29.27,17.54 -42.657,16.95 -8.378,-0.37 -22.437,-17.8 -22.597,-27.76 -0.324,-19.71 3.992,-41.17 12.789,-58.7 4.816,-9.61 23.851,-18.81 34.34,-16.84 9.375,1.77 20.547,18.33 22.433,29.77 2.735,16.55 -2.187,34.37 -4.308,56.58 z m 136.84,-557.8 c -89.961,83.41 -176,163.35 -262.278,243.03 -16.859,15.57 -20.359,31.01 -14.207,54.89 28.871,112.04 54.606,224.88 81.582,337.4 0.356,1.5 2.321,2.61 5.688,6.2 6.574,-5.03 13.707,-9.9 20.203,-15.52 86.039,-74.4 171.808,-149.12 258.18,-223.13 12.027,-10.31 13.199,-18.42 8.96,-34.09 -30.878,-114.24 -59.789,-229 -89.468,-343.56 -1.965,-7.61 -5.086,-14.93 -8.66,-25.22 z" /><path
         id="path58"
         style="fill:#f4f4f4;fill-opacity:1;fill-rule:nonzero;stroke:none"
         d="m 1377.3,1715.39 c -10.96,1.26 -28.63,5.92 -45.85,4.59 -20.69,-1.59 -27.55,-22.38 -13.01,-37.28 19.46,-19.93 43.72,-31.43 72.05,-27.23 8.16,1.2 19.23,9.3 21.45,16.54 2.26,7.36 -3.06,18.76 -8.25,26.15 -4.29,6.12 -13.22,8.99 -26.39,17.23 z m 379.64,-140.19 c 0.13,1.25 0.26,2.51 0.39,3.77 -17.32,2.03 -34.72,5.97 -51.91,5.22 -7.72,-0.33 -18.18,-8.64 -21.49,-16 -2.45,-5.45 2.5,-19.67 7.86,-22.22 21.66,-10.33 44.32,-19.43 67.57,-25.02 7.21,-1.74 23.62,7.93 24.81,14.39 1.71,9.27 -5.59,21.06 -11.25,30.46 -2.79,4.65 -10.49,6.36 -15.98,9.4 z m -191.96,-27.05 c -24.11,0.02 -43.3,2.09 -61.82,-0.54 -17.83,-2.54 -22,-17.34 -9.77,-28.95 13.51,-12.82 30.43,-26.25 47.75,-29.59 15.61,-3 33.78,7.3 50.81,11.73 -8.57,15.04 -17.13,30.08 -26.97,47.35 z m 17.24,208.32 c -21.56,1.34 -37.2,4.2 -52.32,2.48 -8.21,-0.93 -21.43,-9.19 -21.89,-14.98 -0.73,-9.08 5.15,-21.54 12.37,-27.72 9.64,-8.25 22.78,-13.48 35.26,-17.1 19.88,-5.77 45.75,-11.89 52.99,12.38 3.39,11.37 -16.9,29.8 -26.41,44.94 z M 1480.4,1627.72 c -23.61,3.21 -39.49,7.42 -55.13,6.64 -8.12,-0.41 -18.97,-8.04 -22.64,-15.39 -2.73,-5.46 1.65,-18.82 7.18,-23.18 12.95,-10.21 27.65,-20.06 43.23,-24.58 17.72,-5.14 43.01,-8.01 48.45,13.82 3.07,12.35 -14.17,29.77 -21.09,42.69 z m 146.69,-11.19 c -0.04,-1.46 -0.08,-2.94 -0.12,-4.41 18.43,-0.77 37.42,-4.64 55.18,-1.53 21.86,3.83 26.48,23.9 8.34,36.71 -16.27,11.51 -35.89,20.69 -55.29,24.48 -11.63,2.26 -25.67,-7.77 -38.62,-12.28 6.19,-12.14 11.91,-24.56 18.89,-36.24 2,-3.36 7.64,-4.54 11.62,-6.73 z m -395.64,108.21 c 114.18,24.06 223.68,46.11 332.53,70.99 19.62,4.48 31.26,-0.83 42.76,-12.57 64.72,-66.09 129.09,-132.54 193.58,-198.86 19.38,-19.95 38.73,-39.9 60.83,-62.67 -53.92,-9.33 -105.35,-18.55 -156.89,-27.05 -58.2,-9.62 -116.56,-18.29 -174.73,-28.03 -17.45,-2.91 -29.04,1.57 -42.54,14.64 -76.19,73.68 -154.1,145.58 -231.32,218.19 -7.67,7.22 -14.59,15.24 -24.22,25.36" /><path
         id="path60"
         style="fill:none;stroke:#f4f4f4;stroke-width:10;stroke-linecap:butt;stroke-linejoin:miter;stroke-miterlimit:10;stroke-dasharray:none;stroke-opacity:1"
         d="m 1377.3,1715.39 c -10.96,1.26 -28.63,5.92 -45.85,4.59 -20.69,-1.59 -27.55,-22.38 -13.01,-37.28 19.46,-19.93 43.72,-31.43 72.05,-27.23 8.16,1.2 19.23,9.3 21.45,16.54 2.26,7.36 -3.06,18.76 -8.25,26.15 -4.29,6.12 -13.22,8.99 -26.39,17.23 z m 379.64,-140.19 c 0.13,1.25 0.26,2.51 0.39,3.77 -17.32,2.03 -34.72,5.97 -51.91,5.22 -7.72,-0.33 -18.18,-8.64 -21.49,-16 -2.45,-5.45 2.5,-19.67 7.86,-22.22 21.66,-10.33 44.32,-19.43 67.57,-25.02 7.21,-1.74 23.62,7.93 24.81,14.39 1.71,9.27 -5.59,21.06 -11.25,30.46 -2.79,4.65 -10.49,6.36 -15.98,9.4 z m -191.96,-27.05 c -24.11,0.02 -43.3,2.09 -61.82,-0.54 -17.83,-2.54 -22,-17.34 -9.77,-28.95 13.51,-12.82 30.43,-26.25 47.75,-29.59 15.61,-3 33.78,7.3 50.81,11.73 -8.57,15.04 -17.13,30.08 -26.97,47.35 z m 17.24,208.32 c -21.56,1.34 -37.2,4.2 -52.32,2.48 -8.21,-0.93 -21.43,-9.19 -21.89,-14.98 -0.73,-9.08 5.15,-21.54 12.37,-27.72 9.64,-8.25 22.78,-13.48 35.26,-17.1 19.88,-5.77 45.75,-11.89 52.99,12.38 3.39,11.37 -16.9,29.8 -26.41,44.94 z M 1480.4,1627.72 c -23.61,3.21 -39.49,7.42 -55.13,6.64 -8.12,-0.41 -18.97,-8.04 -22.64,-15.39 -2.73,-5.46 1.65,-18.82 7.18,-23.18 12.95,-10.21 27.65,-20.06 43.23,-24.58 17.72,-5.14 43.01,-8.01 48.45,13.82 3.07,12.35 -14.17,29.77 -21.09,42.69 z m 146.69,-11.19 c -0.04,-1.46 -0.08,-2.94 -0.12,-4.41 18.43,-0.77 37.42,-4.64 55.18,-1.53 21.86,3.83 26.48,23.9 8.34,36.71 -16.27,11.51 -35.89,20.69 -55.29,24.48 -11.63,2.26 -25.67,-7.77 -38.62,-12.28 6.19,-12.14 11.91,-24.56 18.89,-36.24 2,-3.36 7.64,-4.54 11.62,-6.73 z m -395.64,108.21 c 114.18,24.06 223.68,46.11 332.53,70.99 19.62,4.48 31.26,-0.83 42.76,-12.57 64.72,-66.09 129.09,-132.54 193.58,-198.86 19.38,-19.95 38.73,-39.9 60.83,-62.67 -53.92,-9.33 -105.35,-18.55 -156.89,-27.05 -58.2,-9.62 -116.56,-18.29 -174.73,-28.03 -17.45,-2.91 -29.04,1.57 -42.54,14.64 -76.19,73.68 -154.1,145.58 -231.32,218.19 -7.67,7.22 -14.59,15.24 -24.22,25.36 z" /><path
         id="path62"
         style="fill:#f4f4f4;fill-opacity:1;fill-rule:nonzero;stroke:none"
         d="m 1050.24,1655.81 c 14.77,-24.73 65.97,-38.15 90.94,-22.39 14.99,9.45 12.42,21.41 2.28,33.18 -16.25,18.87 -59.13,30.34 -82.16,21.09 -14.22,-5.71 -22.67,-15.05 -11.06,-31.88 z m -191.4,-56.25 c 11.816,-19.39 65.68,-33.51 85.734,-22.49 18.211,10.01 20.528,24.43 5.535,38.18 -21.488,19.71 -47.617,24.39 -75.144,19.35 -20.668,-3.79 -26.391,-18.2 -16.125,-35.04 z m 90.043,-70.53 c 14.89,-25.87 58.537,-41.38 83.967,-34.06 8.63,2.48 20.82,8.8 22.36,15.46 1.77,7.64 -4.06,20.63 -10.81,26.01 -23.78,18.99 -51.873,26.22 -80.88,14.84 -7.735,-3.04 -11.262,-16.79 -14.637,-22.25 z m 7.289,201.53 c 14.398,-23.75 72.268,-37.34 91.778,-19.71 5.58,5.05 8.3,20.58 4.71,27.15 -12.83,23.5 -62.637,35.48 -86.683,24.28 -16.239,-7.55 -17.68,-17.89 -9.805,-31.72 z m -190.738,-49.88 c 13.847,-22.85 67.953,-36.26 89.691,-21.39 12.91,8.81 17.734,19.86 4.191,33.3 -22.617,22.44 -50.586,26.68 -79.941,22.46 -18.336,-2.63 -23.605,-18.42 -13.941,-34.37 z m 390.676,-72.28 c -16.65,-8.11 -19.81,-23.81 -6.24,-36.53 22.54,-21.11 49.58,-27.61 79.41,-20.29 18.42,4.52 23.26,22.19 11.16,37.51 -15.4,19.5 -61.99,30.17 -84.33,19.31 z m 174.14,-52.03 c -93.03,-28.56 -183.95,-51.07 -270.47,-84.82 -62.503,-24.38 -103.428,-9.1 -148.706,34.77 -66.406,64.35 -139.265,122.04 -209.289,182.67 -5.32,4.61 -9.937,10.04 -17.457,17.72 73.258,18.45 143.32,36.16 213.422,53.75 37.434,9.39 74.66,19.97 112.54,27.07 12.31,2.3 29.56,-0.64 39.14,-8.11 93.38,-72.8 185.61,-147.09 280.82,-223.05" /><path
         id="path64"
         style="fill:none;stroke:#f4f4f4;stroke-width:10;stroke-linecap:butt;stroke-linejoin:miter;stroke-miterlimit:10;stroke-dasharray:none;stroke-opacity:1"
         d="m 1050.24,1655.81 c 14.77,-24.73 65.97,-38.15 90.94,-22.39 14.99,9.45 12.42,21.41 2.28,33.18 -16.25,18.87 -59.13,30.34 -82.16,21.09 -14.22,-5.71 -22.67,-15.05 -11.06,-31.88 z m -191.4,-56.25 c 11.816,-19.39 65.68,-33.51 85.734,-22.49 18.211,10.01 20.528,24.43 5.535,38.18 -21.488,19.71 -47.617,24.39 -75.144,19.35 -20.668,-3.79 -26.391,-18.2 -16.125,-35.04 z m 90.043,-70.53 c 14.89,-25.87 58.537,-41.38 83.967,-34.06 8.63,2.48 20.82,8.8 22.36,15.46 1.77,7.64 -4.06,20.63 -10.81,26.01 -23.78,18.99 -51.873,26.22 -80.88,14.84 -7.735,-3.04 -11.262,-16.79 -14.637,-22.25 z m 7.289,201.53 c 14.398,-23.75 72.268,-37.34 91.778,-19.71 5.58,5.05 8.3,20.58 4.71,27.15 -12.83,23.5 -62.637,35.48 -86.683,24.28 -16.239,-7.55 -17.68,-17.89 -9.805,-31.72 z m -190.738,-49.88 c 13.847,-22.85 67.953,-36.26 89.691,-21.39 12.91,8.81 17.734,19.86 4.191,33.3 -22.617,22.44 -50.586,26.68 -79.941,22.46 -18.336,-2.63 -23.605,-18.42 -13.941,-34.37 z m 390.676,-72.28 c -16.65,-8.11 -19.81,-23.81 -6.24,-36.53 22.54,-21.11 49.58,-27.61 79.41,-20.29 18.42,4.52 23.26,22.19 11.16,37.51 -15.4,19.5 -61.99,30.17 -84.33,19.31 z m 174.14,-52.03 c -93.03,-28.56 -183.95,-51.07 -270.47,-84.82 -62.503,-24.38 -103.428,-9.1 -148.706,34.77 -66.406,64.35 -139.265,122.04 -209.289,182.67 -5.32,4.61 -9.937,10.04 -17.457,17.72 73.258,18.45 143.32,36.16 213.422,53.75 37.434,9.39 74.66,19.97 112.54,27.07 12.31,2.3 29.56,-0.64 39.14,-8.11 93.38,-72.8 185.61,-147.09 280.82,-223.05 z" /><path
         id="path66"
         style="fill:#f4f4f4;fill-opacity:1;fill-rule:nonzero;stroke:none"
         d="m 3280.48,1404.89 c -9.14,-170.23 56.72,-304.89 197.74,-401.36 201.24,-137.639 502.23,-109.081 630.33,116.81 165.22,291.39 317.67,590.47 464.61,891.61 88.38,181.15 35.91,384.63 -112.39,513.15 -216.56,187.66 -549.46,164.53 -701.88,-113.45 -131.51,-239.84 -251.49,-486.01 -377.74,-728.77 -45.95,-88.36 -96.93,-174.35 -100.67,-277.99" /><path
         id="path68"
         style="fill:none;stroke:#f4f4f4;stroke-width:10;stroke-linecap:butt;stroke-linejoin:miter;stroke-miterlimit:10;stroke-dasharray:none;stroke-opacity:1"
         d="m 3280.48,1404.89 c -9.14,-170.23 56.72,-304.89 197.74,-401.36 201.24,-137.639 502.23,-109.081 630.33,116.81 165.22,291.39 317.67,590.47 464.61,891.61 88.38,181.15 35.91,384.63 -112.39,513.15 -216.56,187.66 -549.46,164.53 -701.88,-113.45 -131.51,-239.84 -251.49,-486.01 -377.74,-728.77 -45.95,-88.36 -96.93,-174.35 -100.67,-277.99 z" /><path
         id="path70"
         style="fill:#b7183f;fill-opacity:1;fill-rule:nonzero;stroke:none"
         d="m 3689.19,1152.65 c -34.06,16.61 -68.12,33.22 -110.28,53.77 19.03,37.06 35.82,72.5 55.16,106.52 16.7,29.39 13.47,46.6 -20.55,60.31 -38.64,15.57 -74.77,37.36 -119.01,60.06 20.35,38.57 38.49,72.96 58.04,110.04 54.25,-26.54 103.84,-50.8 158.44,-77.51 20.35,38.85 42.61,75.99 59.56,115.43 13.19,30.66 30.17,35.51 57.3,20.55 13.79,-7.59 32.3,-11.14 40.95,-22.44 9.97,-13.02 19.84,-35.69 15.02,-48.72 -14.82,-40.1 -36.69,-77.6 -59.33,-123.18 38.57,-21.08 75.76,-46.58 116.71,-62.24 36.58,-13.97 35.57,-37.11 21.52,-60.39 -48.54,-80.44 -21.25,-81.37 -113.78,-36.39 -85.53,41.57 -85.2,41.91 -128.64,-42.56 -7.87,-15.31 -17.34,-29.8 -31.11,-53.25" /><path
         id="path72"
         style="fill:none;stroke:#f4f4f4;stroke-width:10;stroke-linecap:butt;stroke-linejoin:miter;stroke-miterlimit:10;stroke-dasharray:none;stroke-opacity:1"
         d="m 3689.19,1152.65 c -34.06,16.61 -68.12,33.22 -110.28,53.77 19.03,37.06 35.82,72.5 55.16,106.52 16.7,29.39 13.47,46.6 -20.55,60.31 -38.64,15.57 -74.77,37.36 -119.01,60.06 20.35,38.57 38.49,72.96 58.04,110.04 54.25,-26.54 103.84,-50.8 158.44,-77.51 20.35,38.85 42.61,75.99 59.56,115.43 13.19,30.66 30.17,35.51 57.3,20.55 13.79,-7.59 32.3,-11.14 40.95,-22.44 9.97,-13.02 19.84,-35.69 15.02,-48.72 -14.82,-40.1 -36.69,-77.6 -59.33,-123.18 38.57,-21.08 75.76,-46.58 116.71,-62.24 36.58,-13.97 35.57,-37.11 21.52,-60.39 -48.54,-80.44 -21.25,-81.37 -113.78,-36.39 -85.53,41.57 -85.2,41.91 -128.64,-42.56 -7.87,-15.31 -17.34,-29.8 -31.11,-53.25 z" /><path
         id="path74"
         style="fill:#ee3f34;fill-opacity:1;fill-rule:nonzero;stroke:none"
         d="m 4214.17,2404.98 c 39.68,-2.95 72.74,-41.84 70.44,-82.87 -2.31,-41.43 -45.85,-78.7 -86.32,-73.9 -37.64,4.47 -68.52,47.02 -64.07,88.29 3.81,35.24 45.61,71.04 79.95,68.48" /><path
         id="path76"
         style="fill:none;stroke:#f4f4f4;stroke-width:10;stroke-linecap:butt;stroke-linejoin:miter;stroke-miterlimit:10;stroke-dasharray:none;stroke-opacity:1"
         d="m 4214.17,2404.98 c 39.68,-2.95 72.74,-41.84 70.44,-82.87 -2.31,-41.43 -45.85,-78.7 -86.32,-73.9 -37.64,4.47 -68.52,47.02 -64.07,88.29 3.81,35.24 45.61,71.04 79.95,68.48 z" /><path
         id="path78"
         style="fill:#66caa1;fill-opacity:1;fill-rule:nonzero;stroke:none"
         d="m 3908.38,2257.43 c 4.64,43.67 38.6,73.03 80.85,69.91 37.19,-2.74 71.52,-45.25 67.94,-84.12 -3.47,-37.77 -50.93,-74.7 -89.37,-69.57 -34.62,4.62 -63.5,45.34 -59.42,83.78" /><path
         id="path80"
         style="fill:none;stroke:#f4f4f4;stroke-width:10;stroke-linecap:butt;stroke-linejoin:miter;stroke-miterlimit:10;stroke-dasharray:none;stroke-opacity:1"
         d="m 3908.38,2257.43 c 4.64,43.67 38.6,73.03 80.85,69.91 37.19,-2.74 71.52,-45.25 67.94,-84.12 -3.47,-37.77 -50.93,-74.7 -89.37,-69.57 -34.62,4.62 -63.5,45.34 -59.42,83.78 z" /><path
         id="path82"
         style="fill:#d52054;fill-opacity:1;fill-rule:nonzero;stroke:none"
         d="m 4123.97,2010.94 c -4.37,-42.71 -39.74,-71.16 -83.02,-66.78 -40.3,4.06 -72.05,44.82 -66.44,85.29 4.95,35.77 49.69,71.31 86.48,68.69 39.99,-2.84 67.69,-41.2 62.98,-87.2" /><path
         id="path84"
         style="fill:none;stroke:#f4f4f4;stroke-width:10;stroke-linecap:butt;stroke-linejoin:miter;stroke-miterlimit:10;stroke-dasharray:none;stroke-opacity:1"
         d="m 4123.97,2010.94 c -4.37,-42.71 -39.74,-71.16 -83.02,-66.78 -40.3,4.06 -72.05,44.82 -66.44,85.29 4.95,35.77 49.69,71.31 86.48,68.69 39.99,-2.84 67.69,-41.2 62.98,-87.2 z" /><path
         id="path86"
         style="fill:#447fca;fill-opacity:1;fill-rule:nonzero;stroke:none"
         d="m 4298.17,2171.89 c 36.57,-7.59 65.28,-54.67 56.46,-92.57 -8.29,-35.61 -57.85,-67.8 -92.27,-59.92 -36.83,8.45 -65.18,55.46 -56.56,93.79 7.76,34.48 57.33,65.99 92.37,58.7" /><path
         id="path88"
         style="fill:none;stroke:#f4f4f4;stroke-width:10;stroke-linecap:butt;stroke-linejoin:miter;stroke-miterlimit:10;stroke-dasharray:none;stroke-opacity:1"
         d="m 4298.17,2171.89 c 36.57,-7.59 65.28,-54.67 56.46,-92.57 -8.29,-35.61 -57.85,-67.8 -92.27,-59.92 -36.83,8.45 -65.18,55.46 -56.56,93.79 7.76,34.48 57.33,65.99 92.37,58.7 z" /><path
         id="path90"
         style="fill:none;stroke:#f4f4f4;stroke-width:100;stroke-linecap:butt;stroke-linejoin:miter;stroke-miterlimit:10;stroke-dasharray:none;stroke-opacity:1"
         d="m 548.594,2182.26 c 1615.776,109.88 3590.976,1706.01 3755.476,970.2 48.67,-217.7 -2235.48,-824.89 -1317.64,-1105.86 63.49,-19.44 700.57,-212.62 732.36,-225.89" /><path
         id="path92"
         style="fill:#f4f4f4;fill-opacity:1;fill-rule:nonzero;stroke:none"
         d="m 533.875,2583.89 -8.91,21.63 C 444.789,2800.19 343.574,2861.65 203.813,2804.09 62.375,2745.84 33.8008,2630.93 113.973,2436.25 l 8.91,-21.63 c 80.183,-194.67 179.726,-256.83 321.164,-198.58 141.43,58.26 169.32,174.83 89.828,367.85 z m -427.387,335.06 c 10.125,4.57 35.282,15.29 45.825,19.63 254.574,104.85 496.546,4.04 601.386,-250.53 104.852,-254.59 3.071,-498.9 -256.492,-605.81 -162.359,-66.86 -350.867,-42.37 -470.5273,41.98 -38.4649,27.11 -34.83595,742.99 79.8083,794.73" /><path
         id="path94"
         style="fill:#f4f4f4;fill-opacity:1;fill-rule:nonzero;stroke:none"
         d="m 839.109,2582.75 169.721,69.9 61.67,-149.75 c 35.73,3.04 88.39,16.94 153.28,43.67 96.51,39.75 148.38,98.08 116.86,174.62 -32.89,79.86 -122.65,66.26 -240.69,40.99 -154.067,-32.3 -318.302,-49.34 -389.571,123.7 -65.098,158.06 19.16,317.33 250.445,412.59 116.476,47.96 259.676,64.12 329.556,59.81 l 88.4,-214.64 -169.71,-69.89 -57.57,139.77 c -24.07,1.75 -88.09,-12.94 -134.68,-32.12 -99.836,-41.12 -142.312,-103.36 -115.586,-168.27 33.579,-81.52 120.886,-57.25 235.596,-33.36 156.41,31.34 320.65,48.38 393.3,-127.99 67.15,-163.08 -23.08,-326.74 -254.36,-421.99 -123.13,-50.7 -254,-63.74 -346.883,-65.02 l -89.778,217.98" /><path
         id="path96"
         style="fill:#f4f4f4;fill-opacity:1;fill-rule:nonzero;stroke:none"
         d="m 2066.03,3516.2 c -45.51,39.64 -111.39,43.65 -204.56,5.28 -149.75,-61.68 -191.54,-191.76 -116.85,-373.13 l 10.96,-26.62 c 76.76,-186.36 191.77,-257.7 341.52,-196.03 118.14,48.65 169.13,128.03 164.52,252.63 l 148.78,-6.84 c 5.59,-155.33 -58.12,-298.34 -266.11,-384 -286.19,-117.86 -507.71,-24.21 -619.4,247.02 -108.96,264.56 -8.36,492.82 271.18,607.94 232.95,95.94 417.26,45.35 486.47,-122.71 45.24,-109.82 5.79,-207.79 -89.05,-246.86 -76.54,-31.52 -153.37,-0.89 -182.16,68.99 -27.41,66.57 -6.38,133.61 54.7,174.33" /><path
         id="path98"
         style="fill:#f4f4f4;fill-opacity:1;fill-rule:nonzero;stroke:none"
         d="m 3026.21,3637.24 -8.91,21.64 c -80.17,194.66 -181.38,256.13 -321.15,198.57 -141.44,-58.25 -170,-173.16 -89.83,-367.84 l 8.91,-21.63 c 80.18,-194.68 179.72,-256.82 321.15,-198.57 141.44,58.24 169.33,174.83 89.83,367.83 z m -642.08,-250.8 c -104.16,252.91 -0.71,497.92 260.52,605.5 254.58,104.85 496.55,4.04 601.4,-250.53 104.84,-254.59 3.06,-498.9 -256.51,-605.81 -257.9,-106.21 -499.87,-5.41 -605.41,250.84" /><path
         id="path100"
         style="fill:#f4f4f4;fill-opacity:1;fill-rule:nonzero;stroke:none"
         d="m 4053.12,3964.24 c -37.52,36.56 -123.94,135.2 -162.88,156.9 -1.46,0.82 -2.85,1.62 -4.18,2.63 -18.52,14.14 -33.14,37.26 -182.62,143.87 -48.49,34.57 -66.29,50.39 -79.74,53.51 -1.87,0.43 -2.71,-2.85 -4.09,-4.46 -21.27,-24.71 -37.74,-52.5 -49.28,-83.37 -10.45,-27.93 -50.19,-27.92 -61.55,-0.34 l -9.66,23.47 c -7.64,18.55 -29.95,26.16 -47.21,15.94 -37.9,-22.4 -93.13,-50.56 -153.97,-75.61 l -99.23,-40.87 c -16.87,-6.96 -24.92,-26.27 -17.96,-43.14 l 26.23,-63.68 c 6.94,-16.88 26.26,-24.93 43.13,-17.97 l 42.66,17.56 c 21.63,8.91 32.4,1.68 48.84,-38.27 l 192.56,-467.55 c 15.77,-38.28 7.84,-47.38 -10.47,-54.92 l -42.65,-17.57 c -16.88,-6.95 -24.92,-26.26 -17.97,-43.14 l 26.22,-63.68 c 6.95,-16.87 26.27,-24.92 43.15,-17.97 l 358.19,147.52 c 16.87,6.95 24.92,26.27 17.97,43.14 l -26.22,63.69 c -6.96,16.87 -26.27,24.91 -43.15,17.96 l -34.34,-14.14 c -18.29,-7.54 -30.35,-6.65 -46.1,31.62 l -104.16,252.92 c -74.69,181.36 -44.07,291.28 67.41,337.2 7.6,3.12 14.67,7.64 22.17,7.95 0.27,0.01 0.44,0.03 0.64,0.06 -0.82,1.5 2.59,0.3 0,0 0.48,-0.88 2.36,-2.65 7.73,-6.08 5.2,-3.31 9.77,-6.29 15.47,-11.26 13.82,-12.05 29.24,-22.96 46.77,-35.33 0.7,-0.49 1.39,-1.02 2.05,-1.57 l 115.04,-95.43 c 4.16,-3.45 7.4,-7.86 9.46,-12.85 l 126.9,-308.15 c 15.78,-38.27 7.84,-47.38 -10.46,-54.91 l -34.34,-14.15 c -16.87,-6.95 -24.92,-26.26 -17.97,-43.13 l 26.23,-63.69 c 6.95,-16.87 26.26,-24.92 43.14,-17.97 l 183.76,75.69 c 19.64,8.08 26.7,32.28 14.41,49.61 -32.94,46.47 -90.82,126.79 -112.89,149.07 l -56.03,65.37 c -0.45,0.52 -50.51,55.03 -51.01,55.52" /><path
         id="path102"
         style="fill:#f4f4f4;fill-opacity:1;fill-rule:nonzero;stroke:none"
         d="m 3744.86,4233.5 c 2.59,0.3 -0.82,1.5 0,0 v 0" /><g
         transform="scale(10)"
         id="g104"><g
           id="text112"
           style="font-variant:normal;font-weight:normal;font-size:33.99988556px;font-family:JubilatMedium;-inkscape-font-specification:JubilatMedium;writing-mode:lr-tb;fill:#f4f4f4;fill-opacity:1;fill-rule:nonzero;stroke:none"
           transform="matrix(0.866872,0.49853,0.49853,-0.866872,121.315,59.632)"
           aria-label="2
3-25 Okt
2020"><path
             id="path114"
             style=""
             d="M 6.5243921,-2.8222561 H 18.228454 V 0 H 2.490226 v -2.8222561 q 1.9091733,-1.9755793 5.1962716,-5.2958806 3.3036994,-3.3369033 4.1503764,-4.2997903 1.610346,-1.809564 2.241204,-3.054677 0.647458,-1.261715 0.647458,-2.473625 0,-1.975579 -1.394526,-3.220692 -1.377925,-1.245113 -3.6025271,-1.245113 -1.5771431,0 -3.3369029,0.54785 -1.7431581,0.547849 -3.7353389,1.66015 v -3.386707 q 2.0253838,-0.813474 3.7851435,-1.228511 1.7597597,-0.415038 3.2206923,-0.415038 3.8515491,0 6.1425571,1.925775 2.291008,1.925774 2.291008,5.146467 0,1.527338 -0.581053,2.905263 -0.564451,1.361324 -2.075188,3.220693 -0.415038,0.481443 -2.639639,2.7890528 -2.224602,2.2910079 -6.2753699,6.4247831 z" /><path
             id="path116"
             style=""
             d="m 33.311145,-13.363709 q 2.407219,0.514647 3.751941,2.141595 1.361323,1.6269475 1.361323,4.0175644 0,3.668933 -2.523429,5.6777153 -2.523429,2.00878227 -7.171851,2.00878227 -1.560541,0 -3.220692,-0.31542862 -1.643549,-0.29882712 -3.403309,-0.91308287 V -3.9838573 q 1.394527,0.8134738 3.054677,1.2285115 1.660151,0.4150376 3.469715,0.4150376 3.154287,0 4.797836,-1.2451129 1.66015,-1.245113 1.66015,-3.6191285 0,-2.1913989 -1.54394,-3.4199104 -1.527338,-1.245113 -4.266587,-1.245113 h -2.888662 v -2.75585 h 3.021474 q 2.473625,0 3.785144,-0.979489 1.311519,-0.99609 1.311519,-2.855459 0,-1.909173 -1.361324,-2.921865 -1.344722,-1.029294 -3.868151,-1.029294 -1.377925,0 -2.955068,0.298827 -1.577143,0.298828 -3.469715,0.929685 v -2.988271 q 1.909173,-0.531249 3.569324,-0.796873 1.676752,-0.265624 3.154286,-0.265624 3.818347,0 6.042949,1.743158 2.224601,1.726557 2.224601,4.681625 0,2.058587 -1.178707,3.486317 -1.178707,1.411128 -3.353504,1.958977 z" /><path
             id="path118"
             style=""
             d="m 40.317381,-10.674264 h 8.948212 v 2.7226466 h -8.948212 z" /><path
             id="path120"
             style=""
             d="M 54.667809,-2.8217518 H 66.371872 V 5.0428178e-4 H 50.633643 V -2.8217518 q 1.909174,-1.9755793 5.196272,-5.2958807 3.3037,-3.3369025 4.150377,-4.2997905 1.610346,-1.809564 2.241203,-3.054677 0.647459,-1.261714 0.647459,-2.473624 0,-1.97558 -1.394527,-3.220693 -1.377925,-1.245113 -3.602527,-1.245113 -1.577143,0 -3.336903,0.54785 -1.743158,0.54785 -3.735339,1.660151 v -3.386708 q 2.025384,-0.813473 3.785144,-1.228511 1.75976,-0.415038 3.220692,-0.415038 3.85155,0 6.142558,1.925775 2.291008,1.925775 2.291008,5.146467 0,1.527339 -0.581053,2.905264 -0.564451,1.361323 -2.075188,3.220692 -0.415038,0.481444 -2.63964,2.7890531 -2.224602,2.2910079 -6.27537,6.4247831 z" /><path
             id="path122"
             style=""
             d="m 71.497386,-24.785545 h 13.164995 v 2.822256 H 74.568665 v 6.076151 q 0.730466,-0.249022 1.460932,-0.365233 0.730467,-0.132812 1.460933,-0.132812 4.150377,0 6.574197,2.274407 2.42382,2.274406 2.42382,6.1591586 0,4.0009631 -2.490226,6.225565 -2.490226,2.20800037 -7.022438,2.20800037 -1.560541,0 -3.187489,-0.2656241 -1.610346,-0.26562411 -3.336903,-0.79687232 V -3.9506543 q 1.494136,0.8134738 3.08788,1.21191 1.593745,0.3984361 3.370106,0.3984361 2.872061,0 4.548813,-1.5107371 1.676752,-1.5107371 1.676752,-4.1005721 0,-2.5898346 -1.676752,-4.1005726 -1.676752,-1.510737 -4.548813,-1.510737 -1.344722,0 -2.689444,0.298827 -1.32812,0.298828 -2.722647,0.929685 z" /><path
             id="path124"
             style=""
             d="m 108.05122,-22.511139 q -3.65233,0 -5.81052,2.722647 -2.1416,2.722647 -2.1416,7.420874 0,4.6816247 2.1416,7.4042718 2.15819,2.7226471 5.81052,2.7226471 3.65234,0 5.77733,-2.7226471 2.14159,-2.7226471 2.14159,-7.4042718 0,-4.698227 -2.14159,-7.420874 -2.12499,-2.722647 -5.77733,-2.722647 z m 0,-2.722647 q 5.21288,0 8.33396,3.502918 3.12108,3.486317 3.12108,9.36325 0,5.8603317 -3.12108,9.3632496 -3.12108,3.48631637 -8.33396,3.48631637 -5.22947,0 -8.367155,-3.48631637 -3.121083,-3.4863164 -3.121083,-9.3632496 0,-5.876933 3.121083,-9.36325 3.137685,-3.502918 8.367155,-3.502918 z" /><path
             id="path126"
             style=""
             d="m 121.67715,-25.83144 h 3.07128 v 15.256785 l 9.11423,-8.018528 h 3.90135 l -9.86129,8.6991893 10.27633,9.89449798178 h -3.98436 L 124.74843,-9.0805198 V 5.0428178e-4 h -3.07128 z" /><path
             id="path128"
             style=""
             d="m 144.39877,-23.872462 v 5.279279 h 6.29197 v 2.374015 h -6.29197 v 10.0937163 q 0,2.2744064 0.61425,2.9218652 0.63086,0.6474588 2.54003,0.6474588 h 3.13769 V 5.0428178e-4 h -3.13769 q -3.53612,0 -4.88084,-1.31151898178 -1.34472,-1.3281206 -1.34472,-4.814437 V -16.219168 h -2.2412 v -2.374015 h 2.2412 v -5.279279 z" /><path
             id="path130"
             style=""
             d="m 40.149178,32.178236 h 11.704063 v 2.822256 H 36.115012 v -2.822256 q 1.909174,-1.975579 5.196272,-5.295881 3.3037,-3.336902 4.150377,-4.29979 1.610346,-1.809564 2.241203,-3.054677 0.647459,-1.261715 0.647459,-2.473625 0,-1.975579 -1.394527,-3.220692 -1.377925,-1.245113 -3.602527,-1.245113 -1.577143,0 -3.336903,0.54785 -1.743158,0.54785 -3.735339,1.660151 v -3.386708 q 2.025384,-0.813474 3.785144,-1.228511 1.75976,-0.415038 3.220692,-0.415038 3.85155,0 6.142558,1.925775 2.291008,1.925775 2.291008,5.146467 0,1.527338 -0.581053,2.905264 -0.564451,1.361323 -2.075188,3.220692 -0.415038,0.481443 -2.63964,2.789053 -2.224602,2.291008 -6.27537,6.424783 z" /><path
             id="path132"
             style=""
             d="m 63.948301,12.422443 q -2.589835,0 -3.901354,2.556632 -1.294917,2.540031 -1.294917,7.653295 0,5.096662 1.294917,7.653294 1.311519,2.540031 3.901354,2.540031 2.606437,0 3.901354,-2.540031 1.311519,-2.556632 1.311519,-7.653294 0,-5.113264 -1.311519,-7.653295 -1.294917,-2.556632 -3.901354,-2.556632 z m 0,-2.656241 q 4.166978,0 6.358377,3.3037 2.208001,3.287098 2.208001,9.562468 0,6.258768 -2.208001,9.562467 -2.191399,3.287099 -6.358377,3.287099 -4.166978,0 -6.374978,-3.287099 -2.191399,-3.303699 -2.191399,-9.562467 0,-6.27537 2.191399,-9.562468 2.208,-3.3037 6.374978,-3.3037 z" /><path
             id="path134"
             style=""
             d="M 81.152078,32.178236 H 92.85614 v 2.822256 H 77.117912 v -2.822256 q 1.909173,-1.975579 5.196271,-5.295881 3.3037,-3.336902 4.150377,-4.29979 1.610346,-1.809564 2.241203,-3.054677 0.647459,-1.261715 0.647459,-2.473625 0,-1.975579 -1.394527,-3.220692 -1.377925,-1.245113 -3.602527,-1.245113 -1.577143,0 -3.336902,0.54785 -1.743159,0.54785 -3.735339,1.660151 v -3.386708 q 2.025383,-0.813474 3.785143,-1.228511 1.75976,-0.415038 3.220692,-0.415038 3.85155,0 6.142558,1.925775 2.291008,1.925775 2.291008,5.146467 0,1.527338 -0.581053,2.905264 -0.564451,1.361323 -2.075188,3.220692 -0.415038,0.481443 -2.63964,2.789053 -2.224602,2.291008 -6.275369,6.424783 z" /><path
             id="path136"
             style=""
             d="m 104.9512,12.422443 q -2.58983,0 -3.90135,2.556632 -1.294917,2.540031 -1.294917,7.653295 0,5.096662 1.294917,7.653294 1.31152,2.540031 3.90135,2.540031 2.60644,0 3.90136,-2.540031 1.31152,-2.556632 1.31152,-7.653294 0,-5.113264 -1.31152,-7.653295 -1.29492,-2.556632 -3.90136,-2.556632 z m 0,-2.656241 q 4.16698,0 6.35838,3.3037 2.208,3.287098 2.208,9.562468 0,6.258768 -2.208,9.562467 -2.1914,3.287099 -6.35838,3.287099 -4.16697,0 -6.374974,-3.287099 -2.191399,-3.303699 -2.191399,-9.562467 0,-6.27537 2.191399,-9.562468 2.208004,-3.3037 6.374974,-3.3037 z" /></g></g></g></g></svg>